PathFileType	4	(X/Y/Z)	Patient5_TMGait_0pt45_1_right_05.trc.trc
DataRate	CameraRate	NumFrames	NumMarkers	Units	OrigDataRate	OrigDataStartFrame	OrigNumFrames
59.829059829060	59.829059829060	4	32	mm	59.829059829060	106	       141
Frame#	Time	R.ASIS			L.ASIS			Chest			R.Shoulder			Neck			L.Shoulder			L.Elbow			L.Wrist			R.Elbow			R.Wrist			L.Thigh.Superior			L.Thigh.Lateral			L.Thigh.Inferior			L.Patella			L.Shank.Superior			L.Shank.Lateral			L.Shank.Inferior			L.Heel			L.Midfoot.Lateral			L.Midfoot.Superior			L.Toe			R.Thigh.Superior			R.Thigh.Lateral			R.Thigh.Inferior			R.Patella			R.Shank.Superior			R.Shank.Lateral			R.Shank.Inferior			R.Heel			R.Midfoot.Lateral			R.Midfoot.Superior			R.Toe			
		X1	Y1	Z1	X2	Y2	Z2	X3	Y3	Z3	X4	Y4	Z4	X5	Y5	Z5	X6	Y6	Z6	X7	Y7	Z7	X8	Y8	Z8	X9	Y9	Z9	X10	Y10	Z10	X11	Y11	Z11	X12	Y12	Z12	X13	Y13	Z13	X14	Y14	Z14	X15	Y15	Z15	X16	Y16	Z16	X17	Y17	Z17	X18	Y18	Z18	X19	Y19	Z19	X20	Y20	Z20	X21	Y21	Z21	X22	Y22	Z22	X23	Y23	Z23	X24	Y24	Z24	X25	Y25	Z25	X26	Y26	Z26	X27	Y27	Z27	X28	Y28	Z28	X29	Y29	Z29	X30	Y30	Z30	X31	Y31	Z31	X32	Y32	Z32	

106	9.685000000000	945.411555579690	1023.617390210982	539.530731681921	958.192168416516	963.374961261205	287.712786715422	1020.676422310333	1443.931404118847	413.526454434193	888.987957051045	1515.365963460998	552.660870207811	911.129002558826	1571.157621698728	368.384340275327	1012.112662110209	1509.984063799932	211.748515382996	1003.443511215492	1186.445968133568	77.773102979107	1156.717813997310	944.012319548287	96.838939025161	762.139475544322	1198.920826378544	667.139314304720	980.393915482671	1008.182410446362	650.024332740062	957.827915356540	739.192294487511	296.382834831678	875.461208936639	675.455578878392	259.377453235980	938.864614976574	611.441777482727	323.236006385685	923.435555955653	497.188056881480	332.081661333609	869.459716451442	400.724414850344	358.469438483151	794.438870560936	334.576935515264	285.633883525101	828.594903779600	280.812630325106	373.814225496241	679.757723143975	52.582358694271	388.700831237394	766.025844508344	28.150715678308	326.102460439378	865.379047500532	88.612778173436	365.858490492148	971.779889661447	44.037226278137	369.052295324214	1019.062512321089	827.284137986244	579.373729144286	969.384557270963	739.596951014748	648.370760089793	1068.170954024424	708.777225657333	586.178845121499	1104.760354458670	617.770513944976	636.020022974313	1071.357636042937	501.204658909923	607.050581337097	994.556302634241	435.740328503513	686.331764201219	1058.301633491707	361.757486799109	615.387432757253	947.416351968017	134.050912947824	593.177953637681	1022.560236580187	100.998478757861	668.994866416485	1126.592319316202	170.849279182156	660.678566374763	1230.899776538473	130.186192619657	663.854087821211	
107	9.701714285714	945.061939182437	1022.484286879762	538.580394540592	956.038392079732	963.242512685964	287.603103836411	1018.504904039772	1443.720185546297	413.269911082623	887.637787087369	1515.050951847528	553.564520562695	908.350813333910	1570.733099066797	369.137955756803	1008.182572790488	1509.584247321324	211.544996102140	999.521536940126	1185.294724886182	79.158207583291	1153.273679835015	943.203788466052	99.545658117364	760.062083673173	1199.312872803639	668.969068933387	978.207567451132	1008.436603158057	652.438437068541	954.926861876975	738.606552895219	296.357424588331	871.676840914175	675.278393782742	259.928328392520	935.000558214113	610.853298235712	323.094365409635	918.444564557109	496.669017258251	331.846240943032	863.988829069786	400.541390200461	358.496357383560	788.032818278713	335.061211791569	286.031860709762	822.480247477496	280.873593834009	373.905553592908	672.305046386684	52.950815283750	388.786029206675	758.495745299515	28.268291691765	326.275542540176	857.939381134598	88.737873624953	365.704533322315	964.204162482172	43.975181713311	369.011992327322	1021.401241013251	827.241263668348	577.222930892467	974.572980773190	739.408113528574	647.562875645822	1071.807190303523	708.958231715272	582.843589243572	1110.225414335873	618.383340073413	632.110668987399	1076.296010434457	501.364738365313	604.246197488173	1001.774176058348	435.867338525346	685.631224964694	1063.687510355681	361.919375068437	613.007497279703	952.416956564344	133.976594263117	593.967956175783	1029.840698572986	101.155354711534	667.694377244314	1133.447250605572	171.423476352542	656.411949093557	1237.987202006991	131.096272210222	656.681661033708	
108	9.718428571429	944.893728608489	1021.076405916287	537.531973392277	954.044622468791	963.105264033115	287.628670169875	1016.481743690927	1443.513180176337	413.113088698339	886.642980807133	1514.640591035909	554.748482011961	905.630296383050	1570.285258088898	370.178068683250	1004.051711607925	1509.247519392629	211.449441247352	995.057659662315	1184.252572778861	80.513787782469	1149.347006652775	942.531624164764	102.057513212213	758.631592782250	1199.587302665851	671.292529615040	976.414775077242	1008.313985395810	654.968796756087	952.208734607619	738.063942001206	296.292602486312	868.127705893802	675.093952657659	260.451240674676	931.375617225463	610.273404653972	322.883230391249	913.676759720158	496.117048190566	331.583080076073	858.722754559702	400.335707585869	358.478742869835	781.766811108476	335.589519818684	286.405393000928	816.507128628923	280.952627102285	373.977897493225	664.868234058864	53.378435018260	388.873904503546	750.987654326307	28.402828323827	326.446617383520	850.512500170388	88.826954658619	365.569208590532	956.631476843878	43.937041587964	368.954241080640	1023.199538172606	826.667853394883	575.657773473045	978.849411273678	738.641402387581	646.748680854918	1074.611952323117	708.446741648744	579.814159592421	1114.506065227720	618.174107777868	628.415629826330	1080.207761892985	500.855501352654	601.445400571109	1007.714867596141	435.233824356274	684.524425485211	1068.082135443137	361.402159168325	610.494640581500	956.772807078936	133.173980709943	593.986432282031	1036.041364041152	100.605689528129	665.922128240080	1139.201806392952	171.312315794356	652.247745581612	1243.924218493761	131.329615124798	650.128143461375	
109	9.735142857143	944.935910679559	1019.473086281339	536.502840975383	952.231291035951	962.955322698353	287.799801942443	1014.619445300858	1443.307630459603	413.100270455592	886.002879000726	1514.147998190394	556.215793623187	903.001183298775	1569.811314354688	371.503517178576	999.770542533298	1508.948408837263	211.505731263291	990.080861485098	1183.316294389958	81.840562116505	1144.934235303585	941.966343759902	104.297624877327	757.903523352928	1199.724092110801	674.104605670846	975.105863618876	1007.837297415142	657.552960763235	949.663317810525	737.569086266694	296.239642470956	864.812964218257	674.918469026700	260.936410735110	927.944093045200	609.704349046809	322.653580896161	909.083577227096	495.552021747875	331.321794110985	853.626610035727	400.118980900311	358.426118403301	775.631503932499	336.160507762944	286.748604978578	810.643103752911	281.054924394280	374.027982539737	657.450387678732	53.884566819171	388.956614441089	743.501886842934	28.563355593252	326.610842282697	843.101229364342	88.889034063511	365.446946541990	949.063744648976	43.921364827239	368.879166232152	1024.522796442179	825.590699359564	574.674302330507	982.150103572123	737.263671662466	645.942859028794	1076.621600300185	707.269002099334	577.173535429972	1117.598297954887	617.152310751852	625.034507566321	1083.132313232489	499.692146657892	598.684384907497	1012.369029006071	433.814013060194	683.007144586868	1071.556801531752	360.215865667298	607.845497202911	960.607044248855	131.621988993552	593.096984036832	1041.251463707472	99.353099766737	663.639102162059	1143.945623377207	170.545659410347	648.211354714726	1248.826762139504	130.955256892111	644.300807633967	
